<?xml version="1.0" standalone="no"?>
<!DOCTYPE svg PUBLIC "-//W3C//DTD SVG 20010904//EN"
 "http://www.w3.org/TR/2001/REC-SVG-20010904/DTD/svg10.dtd">
<svg version="1.0" xmlns="http://www.w3.org/2000/svg"
 width="528.000000pt" height="560.000000pt" viewBox="0 0 528.000000 560.000000"
 preserveAspectRatio="xMidYMid meet">

<g transform="translate(0.000000,560.000000) scale(0.100000,-0.100000)"
fill="#000000" stroke="none">
<path d="M2530 5073 c-343 -35 -528 -110 -691 -279 -164 -170 -314 -469 -360
-719 -15 -78 -18 -290 -6 -347 l8 -37 -53 -27 c-80 -40 -88 -50 -88 -109 0
-58 19 -85 61 -85 36 0 97 -19 106 -33 4 -6 10 -54 14 -107 8 -119 36 -193 95
-259 52 -57 140 -106 223 -121 29 -5 102 -10 161 -10 323 0 520 161 520 427
l0 73 36 15 c42 18 91 18 154 2 l45 -12 6 -105 c7 -129 32 -199 95 -269 52
-57 140 -106 223 -121 29 -5 102 -10 161 -10 323 0 520 161 520 426 0 85 4 89
91 100 73 9 89 25 89 89 0 60 -8 69 -88 109 -42 21 -52 31 -47 44 14 35 17
232 6 326 -39 309 -154 570 -326 741 -212 211 -606 334 -955 298z m492 -528
c132 -119 255 -195 424 -262 160 -64 201 -93 241 -173 18 -36 37 -94 43 -130
10 -64 14 -270 6 -270 -3 0 -34 7 -70 15 -35 8 -109 20 -165 25 -63 7 -119 19
-153 34 -107 46 -223 63 -329 47 -40 -7 -79 -17 -86 -23 -18 -14 -16 -47 2
-54 28 -11 15 -21 -41 -33 -31 -7 -87 -26 -125 -42 -93 -40 -166 -40 -257 0
-37 16 -92 37 -124 47 -49 15 -54 19 -42 31 36 37 10 59 -85 74 -106 16 -222
-1 -329 -47 -34 -15 -90 -27 -153 -34 -56 -5 -130 -17 -165 -25 -36 -8 -70
-15 -76 -15 -15 0 -4 159 17 241 23 89 95 238 139 287 61 67 140 112 295 167
80 28 156 57 168 63 34 19 37 14 9 -19 -68 -80 0 -97 244 -60 199 30 496 132
539 184 7 9 16 17 18 17 3 0 27 -20 55 -45z m-779 -792 c-7 -2 -21 -2 -30 0
-10 3 -4 5 12 5 17 0 24 -2 18 -5z m835 0 c-10 -2 -26 -2 -35 0 -10 3 -2 5 17
5 19 0 27 -2 18 -5z m-71 -9 c-3 -3 -12 -4 -19 -1 -8 3 -5 6 6 6 11 1 17 -2
13 -5z m-833 -114 c105 -12 175 -40 216 -86 35 -41 45 -82 45 -199 0 -74 -4
-97 -22 -130 -65 -120 -186 -182 -374 -192 -290 -15 -423 73 -436 291 -7 109
10 187 50 233 39 44 89 66 129 58 20 -5 35 -2 46 8 28 26 197 34 346 17z
m1276 -15 c13 -12 27 -15 49 -10 61 13 153 -59 168 -133 4 -20 8 -77 8 -127 0
-74 -4 -97 -22 -130 -65 -120 -186 -182 -374 -192 -290 -15 -423 73 -436 291
-17 260 85 331 455 321 107 -3 137 -7 152 -20z"/>
<path d="M2075 3471 c-45 -20 -70 -60 -70 -112 0 -42 5 -53 33 -81 28 -28 39
-33 82 -33 43 0 54 5 82 33 28 28 33 39 33 82 0 42 -5 54 -31 81 -33 33 -92
46 -129 30z"/>
<path d="M3039 3412 c-60 -31 -116 -99 -105 -127 5 -15 10 -14 40 9 90 68 227
83 326 34 69 -34 86 -23 44 29 -71 87 -200 110 -305 55z"/>
<path d="M2275 2644 c-32 -32 14 -161 85 -238 151 -163 409 -164 558 -2 93
101 131 256 62 256 -14 0 -20 -7 -20 -21 0 -11 -13 -34 -29 -50 l-29 -29 -252
0 -252 0 -29 29 c-16 16 -29 39 -29 50 0 26 -41 29 -65 5z"/>
<path d="M2035 1919 c-305 -53 -457 -156 -504 -340 l-18 -71 -93 -49 c-210
-111 -409 -290 -538 -483 -39 -60 -72 -115 -72 -122 0 -19 223 -240 320 -317
194 -155 449 -302 662 -381 53 -20 100 -36 103 -36 3 0 5 206 5 459 l0 458 70
-36 70 -36 2 -445 3 -445 132 -27 c320 -64 607 -63 938 3 371 74 728 242 1035
486 97 77 320 298 320 317 0 7 -32 61 -71 120 -131 196 -329 374 -539 485
l-93 49 -18 71 c-18 70 -55 136 -100 178 -91 84 -274 149 -496 175 l-31 4 -4
-240 c-4 -218 -6 -247 -26 -301 -27 -72 -88 -156 -151 -208 -203 -165 -507
-133 -674 72 -90 111 -107 183 -107 463 0 120 -3 218 -7 217 -5 0 -57 -9 -118
-20z m1345 -1297 c0 -407 -1 -419 -20 -440 -26 -28 -69 -28 -98 -2 -22 21 -22
23 -22 403 l0 382 68 37 c37 20 68 37 70 38 1 0 2 -188 2 -418z"/>
</g>
</svg>
